<?xml version="1.0" standalone="no"?>
<!DOCTYPE svg PUBLIC "-//W3C//DTD SVG 20010904//EN"
 "http://www.w3.org/TR/2001/REC-SVG-20010904/DTD/svg10.dtd">
<svg version="1.0" xmlns="http://www.w3.org/2000/svg"
 width="700.000000pt" height="700.000000pt" viewBox="0 0 700.000000 700.000000"
 preserveAspectRatio="xMidYMid meet">
<metadata>
Created by potrace 1.14, written by Peter Selinger 2001-2017
</metadata>
<g transform="translate(0.000000,700.000000) scale(0.100000,-0.100000)"
fill="#000000" stroke="none">
<path d="M3285 6606 c-238 -136 -655 -372 -1345 -761 -173 -98 -364 -206 -425
-240 -350 -198 -585 -331 -625 -353 -72 -39 -111 -62 -178 -105 l-62 -39 2
-1637 3 -1636 395 -213 c217 -117 442 -238 500 -269 87 -46 724 -389 945 -508
33 -18 96 -52 140 -75 103 -55 171 -92 325 -175 69 -37 159 -86 200 -108 41
-22 93 -50 115 -62 22 -12 94 -50 160 -85 66 -35 129 -69 140 -77 29 -19 37
-17 132 35 49 27 138 75 198 107 61 32 126 68 145 81 19 12 427 250 905 530
479 279 987 576 1129 659 l260 153 2 501 3 502 -62 -3 -62 -3 -1 -464 0 -464
-260 -152 c-142 -84 -527 -308 -854 -500 -327 -191 -709 -415 -848 -496 l-252
-148 2 377 3 376 385 213 c212 118 412 229 445 247 476 263 825 459 825 465 0
3 -43 31 -96 61 -53 30 -124 71 -158 90 -34 19 -70 40 -80 46 -19 11 -19 45
-19 1163 l0 1151 -21 1 c-12 0 -31 2 -42 3 -12 1 -30 -1 -40 -5 -18 -6 -19
-24 -18 -443 0 -240 -1 -436 -3 -436 -1 0 -12 18 -23 40 -11 22 -23 40 -26 40
-3 0 -231 -132 -507 -294 -276 -161 -555 -324 -619 -361 l-118 -68 0 -883 0
-884 -62 34 c-35 18 -162 84 -283 146 -121 63 -247 128 -280 145 l-60 31 -5
706 c-4 612 -7 709 -20 721 -12 11 -211 127 -430 250 -19 11 -96 54 -170 97
-74 43 -151 86 -170 97 -19 11 -96 55 -170 98 -74 43 -430 247 -790 453 -360
206 -662 379 -671 385 -13 8 -16 36 -15 195 1 183 1 185 25 201 21 14 274 159
526 301 87 48 1774 1002 1993 1125 l233 132 262 -157 c461 -277 1012 -605
1022 -609 6 -2 37 -21 70 -41 33 -21 177 -107 320 -192 143 -85 427 -254 630
-375 l370 -221 -1 -481 -1 -481 64 0 63 0 1 173 c0 94 1 328 2 520 l2 347
-150 89 c-82 48 -275 162 -427 252 -153 90 -286 169 -295 174 -10 6 -63 37
-118 69 -187 111 -929 548 -1368 808 -241 142 -444 258 -450 257 -7 0 -124
-65 -262 -143z m360 45 c17 -10 109 -64 205 -121 96 -56 272 -160 390 -230
118 -70 451 -267 740 -437 630 -372 720 -425 742 -438 9 -5 45 -27 80 -47 35
-20 164 -96 288 -170 l225 -133 -2 -100 c-1 -55 -2 -275 -2 -488 l-1 -388 -22
3 -23 3 -1 460 c-1 253 -2 465 -3 472 0 6 -106 74 -233 151 -291 174 -1062
633 -1105 658 -18 11 -137 82 -265 158 -776 464 -1101 656 -1107 656 -8 0
-575 -318 -1026 -575 -60 -35 -303 -172 -540 -305 -236 -133 -452 -255 -478
-271 -27 -16 -50 -29 -52 -29 -2 0 -26 -13 -53 -29 -26 -15 -70 -41 -98 -56
-27 -15 -87 -49 -134 -75 -87 -49 -338 -192 -398 -226 -18 -10 -35 -28 -38
-39 -2 -11 -3 -108 -2 -214 l3 -195 320 -184 c176 -101 343 -196 370 -212 28
-15 154 -88 280 -160 127 -73 250 -144 275 -158 25 -14 149 -84 275 -157 378
-218 848 -487 874 -501 l23 -12 -33 -18 c-19 -9 -146 -81 -284 -159 -137 -79
-267 -152 -287 -164 -21 -11 -53 -29 -70 -40 -59 -34 -321 -182 -456 -258
-109 -61 -138 -73 -155 -66 -19 9 -16 12 34 40 52 29 387 220 459 261 55 31
341 193 380 215 19 10 40 23 45 27 6 4 37 22 70 40 33 18 95 53 138 78 l78 44
-28 18 c-15 9 -48 28 -73 42 -25 14 -121 69 -215 123 -93 54 -188 108 -210
121 -22 12 -159 91 -305 174 -146 84 -290 166 -320 183 -30 16 -67 39 -83 49
l-27 19 5 -303 c13 -837 15 -1118 7 -1118 -5 0 -14 -10 -20 -22 -8 -18 -11 25
-12 177 -1 110 -3 301 -5 425 -2 124 -6 368 -9 543 -2 176 -6 320 -8 322 -4 4
-271 160 -513 300 -93 54 -224 130 -290 169 -66 39 -137 80 -158 91 -20 11
-37 23 -37 27 0 5 -9 8 -20 8 -20 0 -20 -7 -20 -1362 l0 -1363 33 -19 c17 -10
70 -38 117 -63 113 -61 191 -103 270 -145 36 -19 101 -54 145 -78 44 -23 107
-57 140 -75 143 -78 185 -100 275 -147 52 -28 118 -63 145 -78 58 -32 129 -70
235 -127 41 -22 129 -70 195 -105 157 -85 229 -124 350 -188 55 -29 114 -61
130 -70 17 -10 71 -39 120 -65 50 -26 113 -60 140 -75 28 -15 86 -47 130 -70
44 -24 107 -57 140 -75 229 -124 308 -165 318 -165 7 0 21 6 32 13 11 8 68 39
126 70 59 31 121 65 138 74 l31 18 0 410 c1 343 3 413 15 429 13 17 15 -30 17
-400 l3 -420 235 138 c129 75 246 144 260 151 31 17 446 260 705 412 105 62
325 191 490 287 165 96 363 212 440 257 77 45 145 88 150 95 7 9 10 170 10
452 -1 242 1 445 3 452 6 18 30 15 35 -5 3 -10 4 -220 2 -466 -2 -368 -5 -451
-16 -461 -10 -9 -891 -526 -1316 -772 -18 -11 -132 -77 -254 -149 -122 -71
-240 -140 -262 -153 -22 -13 -146 -85 -276 -161 -130 -76 -285 -164 -346 -196
-60 -33 -136 -73 -169 -91 l-58 -31 -77 42 c-42 23 -116 63 -166 90 -49 26
-112 60 -140 75 -27 15 -85 46 -128 69 -91 48 -185 99 -352 189 -66 35 -151
81 -190 102 -38 21 -212 114 -385 207 -173 94 -364 196 -425 228 -60 32 -123
66 -140 75 -16 10 -75 41 -130 70 -55 30 -113 61 -130 71 -16 10 -52 29 -80
43 -27 14 -86 45 -130 69 -44 24 -161 87 -261 140 l-180 97 0 1611 1 1611 30
23 c17 13 95 60 175 105 80 46 197 112 260 148 63 35 133 75 155 87 105 58
301 168 310 175 6 4 35 21 65 37 103 56 845 475 855 483 6 4 35 21 65 37 30
16 217 121 415 233 198 112 380 214 405 228 25 14 61 35 80 47 38 25 39 24
135 -34z m-2635 -2242 c124 -73 241 -141 260 -151 176 -101 438 -254 448 -263
13 -12 13 -26 27 -1050 4 -253 9 -463 13 -467 8 -7 21 -14 647 -338 234 -121
408 -211 530 -275 66 -34 197 -102 290 -150 245 -126 423 -219 558 -289 l117
-61 -2 -414 -3 -414 -143 -77 -142 -77 -413 221 c-226 122 -457 246 -512 276
-55 29 -212 114 -350 188 -137 74 -288 155 -335 180 -47 24 -103 55 -125 67
-22 12 -69 38 -105 57 -412 221 -823 442 -900 483 l-95 52 -1 1316 c0 725 2
1317 6 1317 3 0 107 -59 230 -131z m1018 -595 c92 -53 187 -108 212 -122 25
-14 194 -110 375 -215 182 -104 340 -195 352 -202 21 -11 -7 -29 -335 -215
-614 -350 -756 -430 -758 -427 -3 2 -10 450 -18 1095 -1 100 -1 182 1 182 2 0
79 -43 171 -96z m3168 -592 c1 -356 -1 -651 -3 -655 -3 -4 -15 -1 -28 7 -13 9
-39 24 -57 34 -26 15 -719 416 -985 570 -66 38 -67 40 -16 69 32 18 604 353
918 537 88 51 162 92 165 89 3 -3 5 -296 6 -651z m-2026 -672 c0 -533 -3 -668
-13 -665 -9 4 -12 145 -11 668 1 364 2 663 3 665 0 1 6 2 11 2 7 0 10 -230 10
-670z m-67 9 c0 -347 -3 -633 -6 -635 -3 -3 -47 17 -98 44 -128 67 -348 181
-564 292 -99 51 -220 114 -270 140 -49 26 -123 64 -164 85 l-74 37 84 47 c46
26 255 145 464 263 209 119 397 225 418 237 21 12 48 28 60 35 12 8 51 31 87
50 36 20 65 36 65 36 0 0 -1 -284 -2 -631z m868 606 c5 4 9 -319 9 -850 0
-853 0 -856 -20 -845 -20 11 -20 21 -20 868 1 593 4 852 11 839 6 -9 14 -15
20 -12z m108 -9 c31 -19 72 -43 91 -54 89 -50 313 -179 390 -225 47 -27 99
-58 115 -67 151 -86 491 -284 504 -293 17 -13 27 -47 13 -47 -4 0 -29 14 -55
30 -26 17 -49 30 -51 30 -2 0 -93 52 -202 116 -110 65 -215 126 -234 137 -19
10 -75 43 -125 72 -49 29 -106 62 -125 73 -128 72 -404 233 -408 236 -6 7 8
26 20 26 6 0 36 -15 67 -34z m501 -381 c465 -269 768 -446 812 -472 l47 -28
-177 -97 c-97 -53 -285 -155 -417 -228 -132 -72 -274 -150 -315 -173 -41 -22
-91 -49 -110 -60 -42 -24 -83 -46 -215 -119 -55 -31 -117 -65 -138 -77 -21
-11 -40 -21 -42 -21 -3 0 -5 360 -5 800 l0 799 178 -103 c97 -56 269 -156 382
-221z m804 -375 c34 -19 95 -53 134 -75 40 -22 72 -42 72 -45 0 -4 -582 -330
-854 -478 -34 -19 -119 -67 -191 -107 -71 -40 -157 -88 -190 -106 -33 -17
-109 -60 -170 -93 -60 -34 -135 -75 -165 -91 l-54 -29 21 34 c11 18 43 45 69
60 58 31 282 154 339 185 271 148 494 271 600 330 72 40 159 88 195 107 36 20
88 48 115 63 28 15 79 44 115 63 114 62 116 51 -17 127 -65 37 -127 74 -138
82 -19 13 -17 14 18 11 21 -1 66 -18 101 -38z"/>
<path d="M3819 5611 c-24 -15 -64 -39 -89 -53 -25 -14 -158 -91 -297 -171
-139 -81 -267 -155 -285 -166 -18 -10 -87 -50 -153 -88 -156 -91 -742 -432
-777 -452 -16 -9 -28 -19 -28 -22 0 -5 424 -251 739 -430 25 -14 173 -99 328
-188 l282 -162 113 64 c62 35 133 75 158 89 25 14 171 96 325 183 154 87 352
198 440 248 88 49 186 104 218 123 32 19 60 34 63 34 2 0 21 10 42 23 20 13
62 37 92 54 30 17 101 57 158 88 56 31 102 60 102 63 0 4 -258 153 -572 332
-315 179 -620 352 -678 386 -58 33 -113 63 -121 66 -9 3 -36 -6 -60 -21z m379
-297 c180 -103 341 -194 357 -204 17 -9 120 -68 230 -130 110 -62 205 -118
212 -124 12 -10 -32 -37 -431 -259 -28 -16 -100 -57 -161 -92 -60 -34 -146
-83 -190 -108 -44 -24 -96 -53 -115 -64 -19 -11 -153 -86 -297 -167 l-262
-148 -233 133 c-128 74 -245 141 -260 149 -273 154 -618 355 -618 360 0 5 210
128 845 495 88 51 257 149 375 219 118 69 216 125 218 126 2 0 150 -84 330
-186z"/>
</g>
</svg>
