<svg width="28" height="28" viewBox="0 0 28 28" fill="none" xmlns="http://www.w3.org/2000/svg">
  <circle cx="14" cy="14" r="14" fill="#ffffff"/>
  <path d="M18.4052 23.4893C17.5633 23.4893 16.7317 23.284 16.0013 22.8946L15.8884 22.8345L15.763 22.8572C15.2211 22.9562 14.663 23.0068 14.1057 23.0068C9.12414 23.0068 5.07101 19.0123 5.07101 14.1019C5.07101 13.5021 5.13261 12.9 5.25361 12.3133L5.28294 12.174L5.20961 12.0515C4.75201 11.2859 4.51074 10.4103 4.51074 9.5186C4.51074 6.75687 6.79214 4.51067 9.59714 4.51067C10.5585 4.51067 11.4943 4.77687 12.3031 5.27993L12.4205 5.35327L12.5583 5.33053C13.0687 5.244 13.5894 5.2 14.1057 5.2C19.0879 5.2 23.1411 9.19373 23.1411 14.1034C23.1411 14.7509 23.0707 15.3941 22.9313 16.0137L22.9027 16.1421L22.9621 16.2594C23.3127 16.9495 23.4901 17.6975 23.4901 18.4814C23.4894 21.2424 21.2087 23.4893 18.4052 23.4893Z" fill="#7accff"/>
  <path d="M18.1977 17.8991C17.8215 18.4242 17.2656 18.84 16.5455 19.1348C15.8327 19.4267 14.9776 19.5755 14.0052 19.5755C12.837 19.5755 11.8573 19.3731 11.0939 18.9735C10.5475 18.6823 10.0958 18.2878 9.75553 17.8016C9.40867 17.3103 9.2334 16.8226 9.2334 16.3518C9.2334 16.0585 9.3478 15.8033 9.5722 15.5943C9.79586 15.3882 10.0811 15.2841 10.4214 15.2841C10.7008 15.2841 10.9421 15.3662 11.1379 15.529C11.3263 15.6852 11.4855 15.9177 11.6138 16.2161C11.7583 16.5425 11.9152 16.816 12.0824 17.0331C12.2408 17.2399 12.4703 17.4166 12.7637 17.5523C13.0585 17.6901 13.4552 17.7598 13.9451 17.7598C14.6175 17.7598 15.1683 17.619 15.5819 17.3403C15.9867 17.0683 16.1839 16.7397 16.1839 16.3393C16.1839 16.0225 16.0813 15.7732 15.8708 15.5796C15.6486 15.375 15.3553 15.2159 15.0025 15.1073C14.6322 14.9937 14.1299 14.8712 13.5095 14.7421C12.6654 14.5632 11.9489 14.3527 11.3791 14.1137C10.7947 13.8687 10.3253 13.5299 9.9814 13.1061C9.63233 12.6749 9.4556 12.1351 9.4556 11.4986C9.4556 10.8921 9.64113 10.3458 10.0085 9.87574C10.3708 9.40934 10.9032 9.04414 11.5867 8.7948C12.2606 8.5484 13.0636 8.42447 13.9715 8.42447C14.6982 8.42447 15.3369 8.5066 15.8708 8.67087C16.4054 8.83514 16.8586 9.0566 17.2128 9.33014C17.5714 9.6066 17.8361 9.90067 18.0033 10.2072C18.172 10.5159 18.2578 10.8239 18.2578 11.1209C18.2578 11.4077 18.1463 11.668 17.9241 11.8953C17.7019 12.1234 17.4203 12.2378 17.0896 12.2378C16.7882 12.2378 16.5521 12.1659 16.3885 12.0237C16.2367 11.8909 16.0783 11.6834 15.9031 11.3864C15.7007 11.0058 15.455 10.7059 15.1734 10.4961C14.9006 10.2915 14.4423 10.1874 13.8153 10.1874C13.2323 10.1874 12.7585 10.3018 12.4073 10.5299C12.067 10.7491 11.902 11.0007 11.902 11.2991C11.902 11.4817 11.9555 11.6343 12.0641 11.7655C12.1807 11.9034 12.3435 12.0266 12.5495 12.1278C12.7637 12.2334 12.9829 12.3185 13.2037 12.3779C13.4295 12.4395 13.8087 12.5319 14.3293 12.6499C14.9871 12.7893 15.5921 12.9447 16.1275 13.1127C16.6687 13.2843 17.1373 13.4947 17.5193 13.7397C17.9073 13.9897 18.216 14.3109 18.436 14.6937C18.6553 15.0787 18.7653 15.5539 18.7653 16.1069C18.766 16.7698 18.5753 17.3719 18.1977 17.8991Z" fill="#ffffff"/>
</svg>
