<svg width="134" height="52" viewBox="0 0 134 52" fill="none" xmlns="http://www.w3.org/2000/svg">
  <path d="M67.5065 21.5227V23.8353H56.1353V7.25H67.2963V9.5626H58.7504V14.2812H66.1522V16.4537H58.7504V21.5227H67.5065Z" fill="white"/>
  <path d="M74.177 24.0689C73.1963 24.0689 72.2156 23.9132 71.2349 23.6017C70.2698 23.2747 69.437 22.8153 68.7365 22.2235L69.7639 20.5883C70.4955 21.1178 71.2194 21.5227 71.9354 21.803C72.6515 22.0678 73.3831 22.2002 74.1303 22.2002C74.893 22.2002 75.4923 22.0522 75.9282 21.7563C76.3796 21.4604 76.6053 21.04 76.6053 20.4949C76.6053 19.981 76.3563 19.6072 75.8581 19.3736C75.36 19.14 74.5817 18.8831 73.5232 18.6028C72.7604 18.4003 72.1066 18.2057 71.5618 18.0188C71.017 17.8319 70.5734 17.6139 70.2309 17.3647C69.8884 17.1155 69.6394 16.8274 69.4837 16.5004C69.328 16.1734 69.2502 15.7763 69.2502 15.3091C69.2502 14.6861 69.367 14.1333 69.6005 13.6505C69.8495 13.1678 70.1842 12.7629 70.6045 12.4358C71.0403 12.0932 71.5463 11.8363 72.1222 11.665C72.6982 11.4937 73.3208 11.408 73.9902 11.408C74.9086 11.408 75.7647 11.5482 76.5586 11.8285C77.3525 12.1088 78.0608 12.5137 78.6834 13.0432L77.586 14.5849C76.4497 13.6817 75.2433 13.2301 73.9668 13.2301C73.313 13.2301 72.7604 13.3702 72.309 13.6505C71.8731 13.9153 71.6552 14.3435 71.6552 14.9353C71.6552 15.1845 71.7019 15.3947 71.7953 15.566C71.8887 15.7373 72.0366 15.8853 72.239 16.0099C72.4569 16.1344 72.7293 16.2512 73.0562 16.3602C73.3987 16.4537 73.8189 16.5627 74.3171 16.6873C75.1421 16.8897 75.8504 17.0922 76.4419 17.2946C77.049 17.4971 77.5471 17.7385 77.9362 18.0188C78.3254 18.2835 78.6134 18.6028 78.8002 18.9765C78.987 19.3347 79.0804 19.7708 79.0804 20.2847C79.0804 21.4526 78.6367 22.3792 77.7494 23.0645C76.8777 23.7341 75.6869 24.0689 74.177 24.0689Z" fill="white"/>
  <path d="M80.5302 17.7151C80.5302 16.8586 80.6781 16.0488 80.9739 15.2857C81.2696 14.5226 81.6899 13.853 82.2347 13.2768C82.7951 12.7006 83.4645 12.249 84.2428 11.9219C85.0211 11.5793 85.8928 11.408 86.858 11.408C88.1188 11.408 89.2007 11.6883 90.1035 12.249C91.022 12.794 91.7069 13.5259 92.1583 14.4448L89.6599 15.239C89.3641 14.7251 88.9672 14.328 88.4691 14.0476C87.9709 13.7518 87.4183 13.6038 86.8113 13.6038C86.2976 13.6038 85.815 13.705 85.3636 13.9075C84.9277 14.1099 84.5463 14.398 84.2195 14.7718C83.8926 15.13 83.6357 15.5582 83.4489 16.0566C83.2621 16.5549 83.1687 17.1078 83.1687 17.7151C83.1687 18.3069 83.2621 18.8597 83.4489 19.3736C83.6513 19.872 83.9159 20.308 84.2428 20.6818C84.5853 21.0555 84.9744 21.3514 85.4103 21.5694C85.8617 21.7719 86.3365 21.8731 86.8346 21.8731C87.1459 21.8731 87.4573 21.8342 87.7686 21.7563C88.0799 21.6629 88.3601 21.5383 88.6092 21.3826C88.8738 21.2268 89.0995 21.0477 89.2863 20.8453C89.4887 20.6428 89.6365 20.4248 89.7299 20.1912L92.2517 20.9387C91.847 21.8575 91.1698 22.6128 90.2203 23.2046C89.2707 23.7808 88.15 24.0689 86.858 24.0689C85.9084 24.0689 85.0445 23.8976 84.2662 23.555C83.4878 23.2124 82.8185 22.753 82.2581 22.1768C81.7133 21.585 81.2852 20.9076 80.9739 20.1445C80.6781 19.3814 80.5302 18.5716 80.5302 17.7151Z" fill="white"/>
  <path d="M97.6126 24.0689C97.0211 24.0689 96.4685 23.9755 95.9548 23.7886C95.4567 23.5862 95.0208 23.3136 94.6472 22.971C94.2892 22.6284 94.0012 22.2235 93.7833 21.7563C93.5809 21.2891 93.4797 20.783 93.4797 20.2379C93.4797 19.6617 93.6043 19.14 93.8533 18.6728C94.1024 18.2057 94.4526 17.8008 94.9041 17.4582C95.371 17.1155 95.9159 16.8508 96.5385 16.6639C97.1767 16.477 97.8772 16.3836 98.64 16.3836C99.2159 16.3836 99.7841 16.4381 100.345 16.5471C100.905 16.6406 101.411 16.7729 101.862 16.9442V16.1033C101.862 15.2001 101.605 14.4993 101.092 14.0009C100.578 13.487 99.8386 13.2301 98.8735 13.2301C98.2197 13.2301 97.5737 13.3546 96.9355 13.6038C96.3128 13.8374 95.6668 14.18 94.9975 14.6316L94.2036 12.9965C95.7758 11.9375 97.4102 11.408 99.107 11.408C100.788 11.408 102.096 11.8363 103.03 12.6928C103.964 13.5493 104.431 14.7796 104.431 16.3836V20.7986C104.431 21.3436 104.656 21.6239 105.108 21.6395V23.8353C104.859 23.882 104.641 23.9132 104.454 23.9288C104.283 23.9443 104.112 23.9521 103.94 23.9521C103.442 23.9521 103.053 23.8275 102.773 23.5784C102.508 23.3292 102.345 23.01 102.283 22.6206L102.212 21.8498C101.668 22.5661 100.991 23.119 100.181 23.5083C99.3872 23.882 98.531 24.0689 97.6126 24.0689ZM98.3131 22.1768C98.9357 22.1768 99.5195 22.0678 100.064 21.8498C100.625 21.6162 101.061 21.2969 101.372 20.892C101.699 20.6117 101.862 20.3158 101.862 20.0043V18.3925C101.426 18.2212 100.959 18.0889 100.461 17.9954C99.9787 17.902 99.5039 17.8553 99.0369 17.8553C98.1185 17.8553 97.3635 18.0577 96.772 18.4626C96.1961 18.8519 95.9081 19.3736 95.9081 20.0277C95.9081 20.6351 96.1338 21.149 96.5852 21.5694C97.0366 21.9743 97.6126 22.1768 98.3131 22.1768Z" fill="white"/>
  <path d="M114.482 24.0689C113.501 24.0689 112.637 23.8353 111.89 23.3681C111.143 22.9009 110.551 22.2936 110.115 21.5461V28.8109H107.547V11.6182H109.812V13.8141C110.279 13.0821 110.878 12.4981 111.61 12.0621C112.357 11.626 113.197 11.408 114.131 11.408C114.972 11.408 115.742 11.5793 116.443 11.9219C117.143 12.2645 117.75 12.7239 118.264 13.3001C118.778 13.8763 119.175 14.546 119.455 15.3091C119.751 16.0721 119.899 16.8742 119.899 17.7151C119.899 18.6028 119.766 19.4359 119.502 20.2146C119.237 20.9777 118.863 21.6473 118.381 22.2235C117.898 22.7841 117.322 23.2358 116.653 23.5784C115.999 23.9054 115.275 24.0689 114.482 24.0689ZM113.641 21.8731C114.186 21.8731 114.676 21.7563 115.112 21.5227C115.563 21.2891 115.945 20.9777 116.256 20.5883C116.583 20.199 116.832 19.7552 117.003 19.2568C117.175 18.7585 117.26 18.2446 117.26 17.7151C117.26 17.1545 117.159 16.625 116.957 16.1267C116.77 15.6283 116.505 15.1923 116.163 14.8185C115.836 14.4448 115.439 14.1489 114.972 13.9308C114.505 13.7128 113.999 13.6038 113.454 13.6038C113.127 13.6038 112.785 13.6661 112.427 13.7907C112.069 13.9153 111.734 14.0866 111.423 14.3046C111.111 14.5226 110.839 14.7796 110.606 15.0755C110.372 15.3558 110.209 15.6672 110.115 16.0099V19.2101C110.271 19.5839 110.473 19.9343 110.722 20.2613C110.971 20.5883 111.244 20.8687 111.54 21.1022C111.851 21.3358 112.186 21.5227 112.544 21.6629C112.902 21.803 113.267 21.8731 113.641 21.8731Z" fill="white"/>
  <path d="M127.742 24.0689C126.793 24.0689 125.929 23.9054 125.151 23.5784C124.372 23.2358 123.703 22.7764 123.143 22.2002C122.598 21.6239 122.17 20.9543 121.858 20.1912C121.563 19.4281 121.415 18.6183 121.415 17.7618C121.415 16.9053 121.563 16.0955 121.858 15.3324C122.17 14.5538 122.598 13.8763 123.143 13.3001C123.703 12.7084 124.372 12.249 125.151 11.9219C125.929 11.5793 126.801 11.408 127.766 11.408C128.715 11.408 129.571 11.5793 130.334 11.9219C131.113 12.2645 131.774 12.7239 132.319 13.3001C132.864 13.8608 133.276 14.5226 133.556 15.2857C133.852 16.0332 134 16.8197 134 17.645C134 17.8319 133.992 18.011 133.977 18.1823C133.961 18.338 133.946 18.4704 133.93 18.5794H124.147C124.193 19.1245 124.318 19.615 124.52 20.0511C124.738 20.4871 125.011 20.8687 125.337 21.1957C125.68 21.5071 126.061 21.7485 126.482 21.9198C126.917 22.0911 127.369 22.1768 127.836 22.1768C128.178 22.1768 128.513 22.1379 128.84 22.06C129.182 21.9666 129.494 21.842 129.774 21.6862C130.054 21.5149 130.303 21.3125 130.521 21.0789C130.739 20.8453 130.91 20.5883 131.035 20.308L133.23 20.9387C132.809 21.8575 132.109 22.6128 131.128 23.2046C130.163 23.7808 129.034 24.0689 127.742 24.0689ZM131.455 16.8041C131.408 16.2902 131.276 15.8152 131.058 15.3791C130.856 14.9431 130.591 14.5771 130.264 14.2812C129.937 13.9698 129.556 13.7284 129.12 13.5571C128.684 13.3858 128.225 13.3001 127.742 13.3001C127.26 13.3001 126.801 13.3858 126.365 13.5571C125.945 13.7284 125.571 13.9698 125.244 14.2812C124.917 14.5771 124.653 14.9431 124.45 15.3791C124.248 15.8152 124.123 16.2902 124.077 16.8041H131.455Z" fill="white"/>
  <path d="M56.1353 47.1949V30.6096H63.3503C64.0974 30.6096 64.7824 30.7653 65.405 31.0768C66.0432 31.3883 66.5881 31.8009 67.0395 32.3149C67.4909 32.8132 67.8412 33.3894 68.0902 34.0435C68.3548 34.682 68.4872 35.336 68.4872 36.0057C68.4872 36.5663 68.4093 37.1036 68.2537 37.6175C68.098 38.1314 67.8801 38.6064 67.5999 39.0424C67.3197 39.4785 66.9772 39.86 66.5725 40.1871C66.1678 40.4985 65.7241 40.7321 65.2416 40.8878L69.1409 47.1949H66.1756L62.5797 41.4251H58.7504V47.1949H56.1353ZM58.7504 39.1125H63.3269C63.7005 39.1125 64.0352 39.0346 64.3309 38.8789C64.6423 38.7076 64.9069 38.4818 65.1248 38.2015C65.3428 37.9056 65.514 37.5708 65.6385 37.197C65.763 36.8233 65.8253 36.4261 65.8253 36.0057C65.8253 35.5852 65.7475 35.1881 65.5918 34.8143C65.4517 34.4406 65.2571 34.1135 65.0081 33.8332C64.7746 33.5529 64.4944 33.3349 64.1675 33.1792C63.8562 33.0079 63.5293 32.9222 63.1868 32.9222H58.7504V39.1125Z" fill="white"/>
  <path d="M76.3906 47.4285C75.4255 47.4285 74.5538 47.2572 73.7755 46.9146C73.0127 46.572 72.3589 46.1126 71.8141 45.5364C71.2693 44.9602 70.849 44.2906 70.5532 43.5275C70.2575 42.7488 70.1096 41.939 70.1096 41.0981C70.1096 40.2571 70.2575 39.4551 70.5532 38.692C70.849 37.9134 71.2693 37.236 71.8141 36.6597C72.3745 36.0835 73.0361 35.6241 73.7988 35.2815C74.5771 34.9389 75.4411 34.7676 76.3906 34.7676C77.3402 34.7676 78.1963 34.9389 78.9591 35.2815C79.7374 35.6241 80.399 36.0835 80.9438 36.6597C81.5042 37.236 81.9322 37.9134 82.228 38.692C82.5238 39.4551 82.6716 40.2571 82.6716 41.0981C82.6716 41.939 82.5238 42.7488 82.228 43.5275C81.9322 44.2906 81.5042 44.9602 80.9438 45.5364C80.399 46.1126 79.7374 46.572 78.9591 46.9146C78.1963 47.2572 77.3402 47.4285 76.3906 47.4285ZM72.7481 41.1214C72.7481 41.7132 72.8415 42.2583 73.0283 42.7566C73.2151 43.2549 73.4719 43.691 73.7988 44.0647C74.1257 44.4229 74.5071 44.711 74.9429 44.9291C75.3944 45.1315 75.8769 45.2327 76.3906 45.2327C76.9043 45.2327 77.3791 45.1315 77.8149 44.9291C78.2664 44.711 78.6555 44.4151 78.9824 44.0414C79.3093 43.6676 79.5661 43.2316 79.7529 42.7332C79.9397 42.2349 80.0331 41.6899 80.0331 41.0981C80.0331 40.5219 79.9397 39.9846 79.7529 39.4863C79.5661 38.9723 79.3093 38.5285 78.9824 38.1548C78.6555 37.781 78.2664 37.4929 77.8149 37.2905C77.3791 37.0724 76.9043 36.9634 76.3906 36.9634C75.8925 36.9634 75.4177 37.0724 74.9663 37.2905C74.5304 37.5085 74.1491 37.8044 73.8222 38.1781C73.4953 38.5519 73.2306 38.9957 73.0283 39.5096C72.8415 40.008 72.7481 40.5452 72.7481 41.1214Z" fill="white"/>
  <path d="M90.4368 47.4285C89.4717 47.4285 88.6 47.2572 87.8217 46.9146C87.0589 46.572 86.4051 46.1126 85.8603 45.5364C85.3155 44.9602 84.8952 44.2906 84.5994 43.5275C84.3037 42.7488 84.1558 41.939 84.1558 41.0981C84.1558 40.2571 84.3037 39.4551 84.5994 38.692C84.8952 37.9134 85.3155 37.236 85.8603 36.6597C86.4207 36.0835 87.0823 35.6241 87.845 35.2815C88.6233 34.9389 89.4873 34.7676 90.4368 34.7676C91.3864 34.7676 92.2425 34.9389 93.0053 35.2815C93.7836 35.6241 94.4452 36.0835 94.99 36.6597C95.5504 37.236 95.9784 37.9134 96.2742 38.692C96.57 39.4551 96.7178 40.2571 96.7178 41.0981C96.7178 41.939 96.57 42.7488 96.2742 43.5275C95.9784 44.2906 95.5504 44.9602 94.99 45.5364C94.4452 46.1126 93.7836 46.572 93.0053 46.9146C92.2425 47.2572 91.3864 47.4285 90.4368 47.4285ZM86.7943 41.1214C86.7943 41.7132 86.8877 42.2583 87.0745 42.7566C87.2613 43.2549 87.5181 43.691 87.845 44.0647C88.1719 44.4229 88.5533 44.711 88.9891 44.9291C89.4406 45.1315 89.9231 45.2327 90.4368 45.2327C90.9505 45.2327 91.4253 45.1315 91.8611 44.9291C92.3126 44.711 92.7017 44.4151 93.0286 44.0414C93.3555 43.6676 93.6124 43.2316 93.7992 42.7332C93.9859 42.2349 94.0793 41.6899 94.0793 41.0981C94.0793 40.5219 93.9859 39.9846 93.7992 39.4863C93.6124 38.9723 93.3555 38.5285 93.0286 38.1548C92.7017 37.781 92.3126 37.4929 91.8611 37.2905C91.4253 37.0724 90.9505 36.9634 90.4368 36.9634C89.9387 36.9634 89.4639 37.0724 89.0125 37.2905C88.5766 37.5085 88.1953 37.8044 87.8684 38.1781C87.5415 38.5519 87.2768 38.9957 87.0745 39.5096C86.8877 40.008 86.7943 40.5452 86.7943 41.1214Z" fill="white"/>
  <path d="M117.676 47.1949H115.107V40.3506C115.107 39.2137 114.92 38.3806 114.547 37.8511C114.173 37.3216 113.628 37.0569 112.912 37.0569C112.181 37.0569 111.511 37.3294 110.904 37.8744C110.313 38.4039 109.885 39.0969 109.62 39.9535V47.1949H107.051V40.3506C107.051 39.1982 106.865 38.365 106.491 37.8511C106.117 37.3216 105.58 37.0569 104.88 37.0569C104.148 37.0569 103.479 37.3216 102.872 37.8511C102.265 38.3806 101.829 39.0736 101.564 39.9301V47.1949H98.9959V34.9779H101.331V37.4306C101.813 36.5741 102.444 35.92 103.222 35.4684C104.016 35.0012 104.919 34.7676 105.931 34.7676C106.943 34.7676 107.736 35.0324 108.312 35.5618C108.904 36.0913 109.27 36.7532 109.41 37.5474C109.923 36.6442 110.569 35.959 111.348 35.4918C112.126 35.009 113.013 34.7676 114.01 34.7676C114.726 34.7676 115.317 34.9078 115.784 35.1881C116.267 35.4528 116.648 35.811 116.928 36.2626C117.209 36.7143 117.403 37.2437 117.512 37.8511C117.621 38.4429 117.676 39.0736 117.676 39.7432V47.1949Z" fill="white"/>
  <rect x="46.0483" y="21.5356" width="21.5741" height="2.28794" fill="white"/>
  <rect x="46.0554" y="30.5619" width="16.0214" height="2.28097" fill="white"/>
  <path fill-rule="evenodd" clip-rule="evenodd" d="M28.9058 42.5L12.2887 33.8917L12.5764 33.3522L29.1935 41.9605L28.9058 42.5Z" fill="white"/>
  <path fill-rule="evenodd" clip-rule="evenodd" d="M38.7832 34.0652V16.1533H39.4015V34.0652H38.7832Z" fill="white"/>
  <path fill-rule="evenodd" clip-rule="evenodd" d="M38.474 22.9307L29.1302 28.3991L28.8634 27.8377L38.1584 22.4067L38.474 22.9307Z" fill="white"/>
  <path fill-rule="evenodd" clip-rule="evenodd" d="M37.5379 15.5626L28.3569 10.331L16.8252 17.0268L25.8061 22.1771L37.5379 15.5626ZM28.354 9.62539L15.6014 17.0301L25.8035 22.8806L38.7832 15.5626L38.247 15.2627L28.354 9.62539Z" fill="white"/>
  <path d="M12.3868 33.9267L12.1234 33.7743L11.9688 22.1189L4.23989 17.6243M12.3868 33.9267L22.5849 28.1296M12.3868 33.9267L22.5849 39.225M23.0984 27.8377V39.4115L22.5849 39.225M23.0984 27.8377L4.23989 17.0301V13.9676L4.70363 13.6629L25.8808 1.70271L46.7286 14.12V21.5078H47.4006L47.4253 13.7106L25.8813 1L4.37806 13.1444L3.62158 13.6415V38.7831L26.3453 50.9999L28.6632 49.7471V49.7591L29.1178 49.5014L29.3588 49.3711V49.3648L47.3458 38.8506L47.3719 31.3571H46.7286V38.4975L29.2815 48.7055V42.535L42.0334 35.4537L28.8634 27.8377M23.0984 27.8377L22.5849 28.1296M28.8634 27.8377L28.7405 27.9085V49.0103L26.3445 50.3053L4.23989 38.4213V17.6243M28.8634 27.8377L29.1302 28.3991L38.474 22.9307L38.1584 22.4067L28.8634 27.8377ZM4.23989 17.6243V17.3957M22.5849 28.1296V39.225M38.247 15.2627L28.354 9.62539L15.6014 17.0301L25.8035 22.8806L38.7832 15.5626L38.247 15.2627ZM21.8645 27.8356L12.7318 33.027L12.5925 22.5218L21.8645 27.8356ZM40.8269 35.4708L29.3588 41.7721V28.8234L40.8269 35.4708ZM28.3569 10.331L37.5379 15.5626L25.8061 22.1771L16.8252 17.0268L28.3569 10.331ZM12.2887 33.8917L28.9058 42.5L29.1935 41.9605L12.5764 33.3522L12.2887 33.8917ZM38.7832 16.1533V34.0652H39.4015V16.1533H38.7832Z" stroke="white" stroke-width="1.5"/>
</svg>
