<svg width="23" height="42" viewBox="0 0 23 42" fill="none" xmlns="http://www.w3.org/2000/svg">
  <path d="M1.49661 20.3502L11.3184 41.6071C11.39 41.7619 11.61 41.7619 11.6816 41.6071L21.5034 20.3502C21.5426 20.2653 21.5697 20.1753 21.584 20.0829L22.9479 11.2269C22.9817 11.0078 22.9417 10.7837 22.8342 10.5898L18.8292 3.36666C18.7367 3.19978 18.5983 3.06286 18.4305 2.97206L15.8125 1.55556L11.8393 0.122392C11.62 0.0432916 11.38 0.0432917 11.1607 0.122392L7.1875 1.55556L4.5695 2.97206C4.40167 3.06286 4.26333 3.19978 4.17081 3.36666L0.165846 10.5898C0.0583389 10.7837 0.0183136 11.0078 0.052062 11.2269L1.41605 20.0829C1.43028 20.1753 1.4574 20.2653 1.49661 20.3502Z" fill="#1C1515"/>
</svg>
