<svg width="28" height="28" viewBox="0 0 28 28" fill="none" xmlns="http://www.w3.org/2000/svg">
  <circle cx="14" cy="14" r="13.5" fill="#c6c4c2" stroke="#000000"/>
  <path d="M9.42687 4C6.43883 4 4 6.52813 4 9.6375C4 10.6203 4.26125 11.5313 4.68875 12.3375C4.58484 12.9094 4.5225 13.4984 4.5225 14.1C4.5225 19.3078 8.5882 23.525 13.595 23.525C14.1175 23.525 14.6266 23.4766 15.1269 23.3875C15.8616 23.7766 16.6929 24 17.5731 24C20.5612 24 23 21.4734 23 18.3625C23 17.5156 22.8026 16.7219 22.4775 16C22.6007 15.3828 22.6794 14.7516 22.6794 14.1C22.6794 8.89531 18.6033 4.675 13.595 4.675C13.1155 4.675 12.6435 4.725 12.1819 4.8C11.3729 4.30156 10.4362 4 9.42687 4ZM9.42687 4.8C10.3427 4.8 11.1903 5.06719 11.9087 5.5375C11.9859 5.59063 12.078 5.6125 12.17 5.6C12.6346 5.51719 13.1096 5.475 13.595 5.475C18.198 5.475 21.9194 9.33438 21.9194 14.1C21.9194 14.7359 21.857 15.3531 21.7294 15.95C21.7056 16.0422 21.7145 16.1391 21.7531 16.225C22.0648 16.8703 22.24 17.5891 22.24 18.3625C22.24 21.0359 20.1574 23.2 17.5731 23.2C16.773 23.2 16.019 22.9906 15.3644 22.625C15.2916 22.5859 15.2085 22.5719 15.1269 22.5875C14.6311 22.6828 14.116 22.725 13.595 22.725C8.99195 22.725 5.2825 18.8703 5.2825 14.1C5.2825 13.5063 5.33891 12.9234 5.44875 12.3625C5.46805 12.2641 5.45023 12.1609 5.40125 12.075C4.99305 11.3563 4.76 10.5313 4.76 9.6375C4.76 6.96719 6.84406 4.8 9.42687 4.8ZM13.5356 7.35C12.5352 7.35 11.6356 7.49219 10.8637 7.7875C10.8608 7.78906 10.8548 7.78594 10.8519 7.7875C10.0726 8.0875 9.43727 8.54375 8.99937 9.1375C8.55703 9.73438 8.3225 10.4484 8.3225 11.2125C8.3225 12.0031 8.54367 12.7141 8.97562 13.275C9.38828 13.8094 9.94047 14.2281 10.6144 14.525C11.2556 14.8078 12.0468 15.0453 12.9656 15.25C13.6232 15.3938 14.1561 15.5281 14.5331 15.65C14.8671 15.7578 15.1298 15.9188 15.3169 16.1C15.4683 16.2469 15.5306 16.3922 15.5306 16.6625C15.5306 16.9813 15.4074 17.1922 15.0437 17.45C14.6816 17.7078 14.1784 17.8625 13.5119 17.8625C13.0235 17.8625 12.648 17.7813 12.4075 17.6625C12.1388 17.5313 11.9384 17.3719 11.8137 17.2C11.6579 16.9875 11.508 16.7078 11.3625 16.3625C11.2081 15.9859 11.0077 15.6672 10.745 15.4375C10.4659 15.1938 10.1082 15.075 9.73562 15.075C9.29477 15.075 8.88211 15.2234 8.57187 15.525C8.26609 15.825 8.085 16.2406 8.085 16.675C8.085 17.3047 8.30914 17.9359 8.71437 18.5375C9.11367 19.1375 9.64805 19.6203 10.2819 19.975C11.171 20.4656 12.2769 20.7 13.5712 20.7C14.6504 20.7 15.6137 20.5281 16.4331 20.175C17.257 19.8203 17.9175 19.3125 18.3687 18.65C18.817 17.9906 19.0441 17.2203 19.0456 16.4C19.0456 15.7234 18.9165 15.1188 18.6419 14.6125C18.3762 14.1234 18.0006 13.7141 17.5375 13.4C17.0937 13.1 16.5623 12.8516 15.9581 12.65C15.3748 12.4563 14.7202 12.2719 14.0106 12.1125C14.0047 12.1109 14.0047 12.1141 13.9987 12.1125C13.4525 11.9813 13.0517 11.8781 12.8231 11.8125C12.6138 11.7516 12.3912 11.6703 12.1819 11.5625C11.9993 11.4672 11.8746 11.3547 11.79 11.25C11.7262 11.1688 11.7069 11.1156 11.7069 10.9875C11.7069 10.7984 11.7752 10.6531 12.075 10.45C12.3689 10.2484 12.7949 10.1375 13.3694 10.1375C13.9973 10.1375 14.4144 10.2594 14.5925 10.4C14.8404 10.5938 15.0734 10.8875 15.2694 11.275C15.2738 11.2797 15.2768 11.2828 15.2812 11.2875C15.4802 11.6422 15.6627 11.9047 15.875 12.1C16.1392 12.3406 16.4895 12.4375 16.8725 12.4375C17.3148 12.4375 17.7305 12.2672 18.0362 11.9375C18.3316 11.6203 18.5112 11.2141 18.5112 10.7875C18.5112 10.3766 18.3955 9.95781 18.1906 9.5625C17.9798 9.15625 17.6562 8.7875 17.2406 8.45C16.8161 8.10469 16.2921 7.83281 15.685 7.6375C15.066 7.4375 14.3416 7.35 13.5356 7.35ZM13.5356 8.15C14.2852 8.15 14.9369 8.24219 15.4594 8.4125C15.9967 8.58594 16.4435 8.81563 16.7775 9.0875C17.1293 9.37344 17.3772 9.66563 17.5256 9.95C17.6815 10.25 17.7512 10.5297 17.7512 10.7875C17.7512 11.0063 17.6815 11.1813 17.5019 11.375C17.3327 11.5594 17.1382 11.6375 16.8725 11.6375C16.6112 11.6375 16.4598 11.5781 16.3737 11.5C16.2639 11.4 16.114 11.1953 15.9462 10.9C15.9418 10.8906 15.9388 10.8844 15.9344 10.875C15.6984 10.4172 15.4045 10.0359 15.0556 9.7625C14.6504 9.44219 14.0819 9.3375 13.3694 9.3375C12.6955 9.3375 12.118 9.475 11.6594 9.7875C11.2319 10.0781 10.9469 10.5031 10.9469 10.9875C10.9469 11.2703 11.0389 11.5469 11.2081 11.7625C11.3744 11.9688 11.5911 12.1406 11.8494 12.275C12.0987 12.4047 12.36 12.5125 12.6212 12.5875C12.8736 12.6594 13.2848 12.7656 13.8444 12.9C14.5391 13.0547 15.1744 13.2281 15.7325 13.4125C16.2862 13.5984 16.7612 13.8234 17.1337 14.075C17.5019 14.325 17.7854 14.6375 17.9887 15.0125C18.1832 15.3719 18.2856 15.8297 18.2856 16.4C18.2856 17.0672 18.1105 17.6594 17.7512 18.1875C17.3965 18.7094 16.8666 19.1281 16.1481 19.4375C15.443 19.7422 14.5732 19.9 13.5712 19.9C12.3659 19.9 11.3833 19.6859 10.6381 19.275C10.1023 18.975 9.67328 18.5703 9.34375 18.075C9.3393 18.075 9.33633 18.075 9.33187 18.075C8.99492 17.5734 8.845 17.1063 8.845 16.675C8.845 16.4484 8.9207 16.2828 9.09437 16.1125C9.26211 15.95 9.44914 15.875 9.73562 15.875C9.95977 15.875 10.1186 15.9266 10.2581 16.05C10.3977 16.1719 10.5416 16.3797 10.6619 16.675C10.6663 16.6797 10.6693 16.6828 10.6737 16.6875C10.837 17.0766 11.0166 17.4094 11.22 17.6875C11.4337 17.9813 11.7277 18.2125 12.0869 18.3875C12.4773 18.5797 12.9523 18.6625 13.5119 18.6625C14.2837 18.6625 14.9473 18.4953 15.4712 18.125C15.9745 17.7688 16.2906 17.2453 16.2906 16.6625C16.2906 16.2188 16.1259 15.8031 15.8275 15.5125C15.5395 15.2328 15.1803 15.0234 14.7587 14.8875C14.3446 14.7531 13.7909 14.6219 13.12 14.475C12.2338 14.2781 11.4902 14.0422 10.9112 13.7875C10.3338 13.5328 9.89297 13.1828 9.56937 12.7625C9.2532 12.3516 9.0825 11.8547 9.0825 11.2125C9.0825 10.6109 9.25023 10.0875 9.59312 9.625C9.59758 9.625 9.60055 9.625 9.605 9.625C9.94047 9.16875 10.4333 8.79844 11.1131 8.5375C11.7811 8.27969 12.599 8.15 13.5356 8.15Z" fill="#020202"/>
</svg>
